<svg width="36" height="32" viewBox="0 0 36 32" fill="none" xmlns="http://www.w3.org/2000/svg">
<path d="M17 7C18.6568 7 20 8.11931 20 9.5C20 10.8807 18.6568 12 17 12C15.3432 12 14 10.8807 14 9.5C14 8.11931 15.3432 7 17 7Z" fill="white"/>
<path d="M31.4701 16.7069C31.2118 17.113 30.8697 17.4612 30.4658 17.7293L19.9352 24.7116C19.2159 25.1887 18.3679 25.4435 17.5001 25.4435C16.6322 25.4435 15.7842 25.1887 15.065 24.7116L4.53431 17.7293C3.90406 17.3117 3.43032 16.7029 3.18547 15.9959C2.94062 15.2889 2.93814 14.5226 3.17839 13.8141L15.0858 21.6103C15.7543 22.0478 16.5331 22.2951 17.3359 22.3247C18.1386 22.3543 18.934 22.165 19.634 21.7778L19.9125 21.6103L31.82 13.8141C31.9826 14.2918 32.0356 14.7989 31.9751 15.299C31.9146 15.7992 31.7422 16.28 31.4701 16.7069ZM31.82 19.3706C32.0616 20.0788 32.06 20.8453 31.8153 21.5526C31.5707 22.2598 31.0966 22.8687 30.4658 23.2858L19.9352 30.2681C19.2159 30.7451 18.3679 31 17.5001 31C16.6322 31 15.7842 30.7451 15.065 30.2681L4.53431 23.2858C3.90406 22.8681 3.43032 22.2593 3.18547 21.5523C2.94062 20.8454 2.93814 20.0791 3.17839 19.3706L15.0858 27.1667C15.7543 27.6043 16.5331 27.8516 17.3359 27.8811C18.1386 27.9107 18.934 27.7214 19.634 27.3343L19.9125 27.1667L31.82 19.3706ZM19.9143 1.71814L30.9932 8.97231C31.2316 9.12845 31.427 9.33997 31.5622 9.58811C31.6974 9.83625 31.7681 10.1133 31.7681 10.3948C31.7681 10.6762 31.6974 10.9533 31.5622 11.2014C31.427 11.4496 31.2316 11.6611 30.9932 11.8172L19.9143 19.0731C19.1994 19.5414 18.3593 19.7912 17.5001 19.7912C16.6408 19.7912 15.8007 19.5414 15.0858 19.0731L4.00691 11.8172C3.76852 11.6611 3.57306 11.4496 3.43787 11.2014C3.30269 10.9533 3.23195 10.6762 3.23195 10.3948C3.23195 10.1133 3.30269 9.83625 3.43787 9.58811C3.57306 9.33997 3.76852 9.12845 4.00691 8.97231L15.0858 1.71814C15.8007 1.24988 16.6408 1 17.5001 1C18.3593 1 19.1994 1.24988 19.9143 1.71814ZM16.7342 3.73727L16.5323 3.85182L6.54297 10.3948L16.534 16.9394C16.7872 17.1051 17.0802 17.2027 17.3838 17.2225C17.6873 17.2423 17.9909 17.1836 18.2642 17.0523L18.4661 16.9394L28.4554 10.3948L18.4643 3.85182C18.2115 3.68617 17.9189 3.58843 17.6157 3.56834C17.3124 3.54824 17.0074 3.60648 16.7342 3.73727Z" fill="white"/>
</svg>
